<svg width="1811" height="507" viewBox="0 0 1811 507" fill="none" xmlns="http://www.w3.org/2000/svg">
<circle cx="250" cy="257" r="222" stroke="url(#paint0_linear_2_9)" stroke-width="56"/>
<circle cx="249.5" cy="256.5" r="169.5" stroke="url(#paint1_linear_2_9)" stroke-width="56"/>
<path d="M713.838 130.392C713.838 141.431 711.963 151.672 708.214 161.114C704.535 170.557 699.293 178.715 692.489 185.588C685.754 192.461 677.631 197.877 668.119 201.834C658.608 205.722 648.054 207.666 636.46 207.666C624.865 207.666 614.312 205.722 604.8 201.834C595.289 197.877 587.131 192.461 580.327 185.588C573.523 178.715 568.246 170.557 564.497 161.114C560.817 151.672 558.978 141.431 558.978 130.392C558.978 119.353 560.817 109.147 564.497 99.7743C568.246 90.332 573.523 82.1741 580.327 75.3007C587.131 68.4273 595.289 63.0466 604.8 59.1586C614.312 55.2011 624.865 53.2224 636.46 53.2224C648.054 53.2224 658.608 55.2011 668.119 59.1586C677.631 63.0466 685.754 68.462 692.489 75.4049C699.293 82.2783 704.535 90.4361 708.214 99.8784C711.963 109.251 713.838 119.423 713.838 130.392ZM681.866 130.392C681.866 122.477 680.825 115.396 678.742 109.147C676.659 102.829 673.639 97.4831 669.681 93.1091C665.793 88.6657 661.038 85.2984 655.414 83.0073C649.86 80.6467 643.542 79.4664 636.46 79.4664C629.378 79.4664 623.025 80.6467 617.402 83.0073C611.778 85.2984 606.987 88.6657 603.03 93.1091C599.142 97.4831 596.157 102.829 594.074 109.147C591.991 115.396 590.949 122.477 590.949 130.392C590.949 138.377 591.991 145.528 594.074 151.846C596.157 158.094 599.142 163.406 603.03 167.78C606.987 172.154 611.778 175.521 617.402 177.881C623.025 180.173 629.378 181.318 636.46 181.318C643.542 181.318 649.86 180.173 655.414 177.881C661.038 175.521 665.793 172.154 669.681 167.78C673.639 163.406 676.659 158.094 678.742 151.846C680.825 145.528 681.866 138.377 681.866 130.392ZM759.814 177.673C762.522 180.797 765.438 182.984 768.562 184.234C771.756 185.484 775.158 186.109 778.768 186.109C782.239 186.109 785.398 185.449 788.245 184.13C791.091 182.811 793.521 180.763 795.535 177.986C797.618 175.139 799.215 171.529 800.325 167.155C801.436 162.781 801.992 157.574 801.992 151.533C801.992 145.562 801.506 140.494 800.534 136.328C799.631 132.163 798.312 128.795 796.576 126.227C794.91 123.658 792.862 121.818 790.432 120.707C788.002 119.527 785.294 118.937 782.309 118.937C777.24 118.937 772.971 119.943 769.499 121.957C766.097 123.901 762.869 126.782 759.814 130.601V177.673ZM758.148 112.688C760.3 110.327 762.591 108.175 765.021 106.231C767.451 104.218 770.055 102.517 772.832 101.128C775.609 99.6701 778.594 98.5593 781.788 97.7956C784.982 96.9624 788.453 96.5459 792.202 96.5459C797.965 96.5459 803.241 97.7956 808.032 100.295C812.892 102.725 817.058 106.301 820.529 111.022C824.001 115.673 826.708 121.401 828.652 128.205C830.596 135.009 831.568 142.785 831.568 151.533C831.568 159.587 830.457 167.051 828.236 173.924C826.083 180.728 822.994 186.629 818.967 191.628C814.94 196.627 810.08 200.55 804.387 203.396C798.763 206.174 792.48 207.562 785.537 207.562C779.705 207.562 774.741 206.694 770.645 204.959C766.618 203.223 763.008 200.862 759.814 197.877V240.68H731.07V98.6287H748.775C752.385 98.6287 754.78 100.295 755.961 103.628L758.148 112.688ZM918.171 139.661C918.171 136.676 917.755 133.829 916.921 131.121C916.158 128.414 914.908 126.018 913.172 123.935C911.437 121.853 909.25 120.221 906.611 119.041C903.973 117.791 900.814 117.166 897.134 117.166C890.261 117.166 884.88 119.11 880.992 122.998C877.104 126.886 874.57 132.44 873.39 139.661H918.171ZM872.973 156.74C873.876 166.808 876.722 174.167 881.513 178.819C886.373 183.47 892.691 185.796 900.467 185.796C904.424 185.796 907.826 185.345 910.673 184.442C913.589 183.47 916.123 182.429 918.275 181.318C920.497 180.138 922.476 179.096 924.211 178.194C926.017 177.222 927.787 176.736 929.523 176.736C931.744 176.736 933.48 177.569 934.73 179.235L943.061 189.65C940.006 193.19 936.639 196.141 932.959 198.502C929.28 200.793 925.461 202.633 921.504 204.021C917.546 205.34 913.554 206.243 909.527 206.729C905.5 207.284 901.612 207.562 897.863 207.562C890.365 207.562 883.353 206.347 876.826 203.917C870.37 201.418 864.711 197.773 859.851 192.982C855.061 188.122 851.277 182.117 848.5 174.965C845.722 167.814 844.334 159.518 844.334 150.075C844.334 142.785 845.514 135.912 847.875 129.455C850.305 122.998 853.776 117.374 858.289 112.584C862.802 107.793 868.287 104.009 874.744 101.232C881.2 98.3857 888.49 96.9624 896.614 96.9624C903.487 96.9624 909.805 98.0733 915.568 100.295C921.4 102.447 926.398 105.606 930.564 109.772C934.799 113.938 938.062 119.075 940.354 125.185C942.714 131.225 943.894 138.134 943.894 145.91C943.894 148.062 943.79 149.832 943.582 151.221C943.374 152.609 943.027 153.72 942.541 154.553C942.055 155.387 941.395 155.977 940.562 156.324C939.729 156.602 938.653 156.74 937.333 156.74H872.973ZM988.391 111.126C990.543 109.043 992.765 107.134 995.056 105.398C997.417 103.662 999.882 102.17 1002.45 100.92C1005.09 99.6701 1007.9 98.6981 1010.89 98.0039C1013.94 97.3096 1017.24 96.9624 1020.78 96.9624C1026.61 96.9624 1031.78 97.9691 1036.3 99.9826C1040.81 101.996 1044.59 104.808 1047.65 108.418C1050.77 112.028 1053.1 116.333 1054.63 121.332C1056.22 126.331 1057.02 131.816 1057.02 137.786V206H1028.38V137.786C1028.38 131.816 1026.99 127.199 1024.22 123.935C1021.44 120.603 1017.34 118.937 1011.93 118.937C1007.9 118.937 1004.12 119.804 1000.58 121.54C997.035 123.276 993.668 125.706 990.474 128.83V206H961.731V98.6287H979.435C983.045 98.6287 985.44 100.295 986.621 103.628L988.391 111.126ZM1268.78 130.392C1268.78 141.431 1266.91 151.603 1263.16 160.906C1259.48 170.14 1254.24 178.09 1247.43 184.755C1240.7 191.42 1232.58 196.627 1223.06 200.376C1213.55 204.125 1203 206 1191.4 206H1133.29V54.8887H1191.4C1203 54.8887 1213.55 56.7633 1223.06 60.5124C1232.58 64.2616 1240.7 69.5034 1247.43 76.238C1254.24 82.9031 1259.48 90.8527 1263.16 100.087C1266.91 109.321 1268.78 119.423 1268.78 130.392ZM1236.71 130.392C1236.71 122.477 1235.67 115.361 1233.58 109.043C1231.5 102.725 1228.51 97.379 1224.63 93.005C1220.74 88.631 1215.98 85.2637 1210.36 82.9031C1204.8 80.5426 1198.49 79.3623 1191.4 79.3623H1164.74V181.526H1191.4C1198.49 181.526 1204.8 180.381 1210.36 178.09C1215.98 175.729 1220.74 172.362 1224.63 167.988C1228.51 163.544 1231.5 158.164 1233.58 151.846C1235.67 145.528 1236.71 138.377 1236.71 130.392ZM1354.68 139.661C1354.68 136.676 1354.26 133.829 1353.43 131.121C1352.66 128.414 1351.41 126.018 1349.68 123.935C1347.94 121.853 1345.75 120.221 1343.12 119.041C1340.48 117.791 1337.32 117.166 1333.64 117.166C1326.77 117.166 1321.39 119.11 1317.5 122.998C1313.61 126.886 1311.08 132.44 1309.89 139.661H1354.68ZM1309.48 156.74C1310.38 166.808 1313.23 174.167 1318.02 178.819C1322.88 183.47 1329.2 185.796 1336.97 185.796C1340.93 185.796 1344.33 185.345 1347.18 184.442C1350.09 183.47 1352.63 182.429 1354.78 181.318C1357 180.138 1358.98 179.096 1360.72 178.194C1362.52 177.222 1364.29 176.736 1366.03 176.736C1368.25 176.736 1369.99 177.569 1371.23 179.235L1379.57 189.65C1376.51 193.19 1373.14 196.141 1369.46 198.502C1365.78 200.793 1361.97 202.633 1358.01 204.021C1354.05 205.34 1350.06 206.243 1346.03 206.729C1342.01 207.284 1338.12 207.562 1334.37 207.562C1326.87 207.562 1319.86 206.347 1313.33 203.917C1306.87 201.418 1301.22 197.773 1296.36 192.982C1291.57 188.122 1287.78 182.117 1285 174.965C1282.23 167.814 1280.84 159.518 1280.84 150.075C1280.84 142.785 1282.02 135.912 1284.38 129.455C1286.81 122.998 1290.28 117.374 1294.79 112.584C1299.31 107.793 1304.79 104.009 1311.25 101.232C1317.71 98.3857 1325 96.9624 1333.12 96.9624C1339.99 96.9624 1346.31 98.0733 1352.07 100.295C1357.9 102.447 1362.9 105.606 1367.07 109.772C1371.3 113.938 1374.57 119.075 1376.86 125.185C1379.22 131.225 1380.4 138.134 1380.4 145.91C1380.4 148.062 1380.3 149.832 1380.09 151.221C1379.88 152.609 1379.53 153.72 1379.05 154.553C1378.56 155.387 1377.9 155.977 1377.07 156.324C1376.23 156.602 1375.16 156.74 1373.84 156.74H1309.48ZM1464.99 120.707C1464.23 121.887 1463.43 122.755 1462.6 123.311C1461.83 123.797 1460.76 124.04 1459.37 124.04C1457.98 124.04 1456.56 123.692 1455.1 122.998C1453.64 122.304 1452.01 121.575 1450.2 120.811C1448.4 119.978 1446.31 119.214 1443.95 118.52C1441.66 117.826 1438.99 117.479 1435.94 117.479C1431.28 117.479 1427.67 118.451 1425.1 120.395C1422.54 122.269 1421.25 124.769 1421.25 127.893C1421.25 130.045 1421.98 131.85 1423.44 133.308C1424.9 134.766 1426.81 136.051 1429.17 137.162C1431.6 138.203 1434.34 139.21 1437.39 140.182C1440.45 141.084 1443.57 142.091 1446.77 143.202C1450.03 144.313 1453.19 145.597 1456.24 147.055C1459.3 148.513 1462.01 150.353 1464.37 152.575C1466.8 154.727 1468.74 157.365 1470.2 160.49C1471.66 163.544 1472.39 167.259 1472.39 171.633C1472.39 176.84 1471.41 181.665 1469.47 186.109C1467.59 190.483 1464.82 194.267 1461.14 197.46C1457.46 200.654 1452.88 203.153 1447.39 204.959C1441.91 206.764 1435.59 207.666 1428.44 207.666C1424.76 207.666 1421.11 207.319 1417.5 206.625C1413.89 206 1410.45 205.097 1407.19 203.917C1403.93 202.667 1400.87 201.244 1398.03 199.647C1395.18 198.05 1392.72 196.315 1390.63 194.44L1397.3 183.713C1398.06 182.464 1399 181.492 1400.11 180.797C1401.29 180.103 1402.78 179.756 1404.59 179.756C1406.32 179.756 1407.92 180.207 1409.38 181.11C1410.84 181.943 1412.47 182.88 1414.27 183.922C1416.08 184.894 1418.2 185.831 1420.63 186.734C1423.13 187.567 1426.22 187.983 1429.89 187.983C1432.67 187.983 1435.07 187.671 1437.08 187.046C1439.09 186.421 1440.73 185.588 1441.98 184.547C1443.23 183.436 1444.13 182.221 1444.68 180.902C1445.31 179.513 1445.62 178.09 1445.62 176.632C1445.62 174.271 1444.86 172.362 1443.33 170.904C1441.87 169.376 1439.93 168.057 1437.5 166.946C1435.14 165.836 1432.39 164.829 1429.27 163.926C1426.15 163.024 1422.95 162.017 1419.69 160.906C1416.5 159.795 1413.34 158.476 1410.21 156.949C1407.16 155.421 1404.41 153.512 1401.98 151.221C1399.62 148.86 1397.68 145.979 1396.15 142.577C1394.69 139.175 1393.97 135.044 1393.97 130.184C1393.97 125.741 1394.83 121.54 1396.57 117.583C1398.3 113.556 1400.91 110.015 1404.38 106.96C1407.85 103.905 1412.16 101.475 1417.29 99.6701C1422.5 97.865 1428.51 96.9624 1435.31 96.9624C1442.95 96.9624 1449.89 98.2121 1456.14 100.712C1462.39 103.211 1467.53 106.474 1471.55 110.501L1464.99 120.707ZM1519.95 98.6287V206H1491.21V98.6287H1519.95ZM1523.39 68.1149C1523.39 70.5449 1522.9 72.8013 1521.93 74.8841C1520.96 76.967 1519.64 78.8069 1517.98 80.4037C1516.38 82.0006 1514.47 83.2503 1512.25 84.1529C1510.1 85.0554 1507.77 85.5067 1505.27 85.5067C1502.91 85.5067 1500.65 85.0554 1498.5 84.1529C1496.42 83.2503 1494.58 82.0006 1492.98 80.4037C1491.38 78.8069 1490.1 76.967 1489.13 74.8841C1488.23 72.8013 1487.77 70.5449 1487.77 68.1149C1487.77 65.6849 1488.23 63.4284 1489.13 61.3456C1490.1 59.1933 1491.38 57.3187 1492.98 55.7219C1494.58 54.125 1496.42 52.8753 1498.5 51.9727C1500.65 51.0701 1502.91 50.6189 1505.27 50.6189C1507.77 50.6189 1510.1 51.0701 1512.25 51.9727C1514.47 52.8753 1516.38 54.125 1517.98 55.7219C1519.64 57.3187 1520.96 59.1933 1521.93 61.3456C1522.9 63.4284 1523.39 65.6849 1523.39 68.1149ZM1584.47 148.305C1590.38 148.305 1594.71 146.812 1597.49 143.827C1600.34 140.841 1601.76 136.988 1601.76 132.267C1601.76 127.337 1600.34 123.484 1597.49 120.707C1594.71 117.86 1590.38 116.437 1584.47 116.437C1578.57 116.437 1574.23 117.86 1571.46 120.707C1568.68 123.484 1567.29 127.337 1567.29 132.267C1567.29 136.919 1568.68 140.772 1571.46 143.827C1574.3 146.812 1578.64 148.305 1584.47 148.305ZM1611.66 210.374C1611.66 208.499 1611.07 206.972 1609.88 205.792C1608.7 204.611 1607.11 203.674 1605.09 202.98C1603.15 202.286 1600.82 201.8 1598.12 201.522C1595.41 201.175 1592.53 200.932 1589.47 200.793C1586.42 200.585 1583.26 200.411 1580 200.272C1576.73 200.133 1573.54 199.89 1570.41 199.543C1567.98 201.001 1565.97 202.737 1564.37 204.75C1562.85 206.694 1562.08 208.916 1562.08 211.415C1562.08 213.151 1562.47 214.748 1563.23 216.206C1564.06 217.664 1565.42 218.914 1567.29 219.955C1569.16 220.997 1571.63 221.795 1574.68 222.35C1577.74 222.975 1581.56 223.288 1586.14 223.288C1590.86 223.288 1594.85 222.975 1598.12 222.35C1601.38 221.726 1604.02 220.823 1606.03 219.643C1608.04 218.532 1609.47 217.178 1610.3 215.581C1611.2 213.984 1611.66 212.249 1611.66 210.374ZM1640.19 102.17V112.688C1640.19 114.354 1639.7 115.673 1638.73 116.645C1637.83 117.617 1636.3 118.346 1634.15 118.832L1625.4 120.603C1626.58 124.005 1627.17 127.65 1627.17 131.538C1627.17 136.884 1626.06 141.709 1623.84 146.014C1621.69 150.249 1618.7 153.894 1614.88 156.949C1611.07 159.934 1606.55 162.26 1601.35 163.926C1596.14 165.523 1590.51 166.322 1584.47 166.322C1580.66 166.322 1577.08 166.009 1573.75 165.384C1570.83 167.189 1569.37 169.168 1569.37 171.32C1569.37 173.334 1570.35 174.792 1572.29 175.694C1574.3 176.597 1576.91 177.257 1580.1 177.673C1583.36 178.02 1587.04 178.263 1591.14 178.402C1595.3 178.472 1599.51 178.68 1603.74 179.027C1608.04 179.374 1612.25 179.999 1616.34 180.902C1620.51 181.735 1624.19 183.158 1627.38 185.171C1630.64 187.115 1633.25 189.719 1635.19 192.982C1637.2 196.245 1638.21 200.446 1638.21 205.583C1638.21 210.374 1637.03 215.026 1634.67 219.539C1632.31 224.051 1628.87 228.078 1624.36 231.619C1619.92 235.16 1614.43 238.007 1607.91 240.159C1601.38 242.311 1593.95 243.387 1585.62 243.387C1577.36 243.387 1570.17 242.589 1564.06 240.992C1558.02 239.465 1552.99 237.382 1548.96 234.743C1545 232.175 1542.05 229.189 1540.11 225.787C1538.17 222.385 1537.19 218.844 1537.19 215.165C1537.19 210.374 1538.65 206.312 1541.57 202.98C1544.48 199.647 1548.51 196.974 1553.65 194.961C1550.94 193.433 1548.75 191.455 1547.09 189.025C1545.49 186.525 1544.69 183.297 1544.69 179.339C1544.69 176.146 1545.84 172.778 1548.13 169.238C1550.49 165.697 1554.1 162.746 1558.96 160.385C1553.47 157.469 1549.13 153.581 1545.94 148.721C1542.75 143.792 1541.15 138.064 1541.15 131.538C1541.15 126.192 1542.23 121.367 1544.38 117.062C1546.6 112.757 1549.66 109.112 1553.54 106.127C1557.43 103.072 1562.01 100.746 1567.29 99.1494C1572.57 97.5526 1578.29 96.7541 1584.47 96.7541C1593.64 96.7541 1601.73 98.5593 1608.74 102.17H1640.19ZM1681.8 111.126C1683.95 109.043 1686.17 107.134 1688.46 105.398C1690.82 103.662 1693.29 102.17 1695.85 100.92C1698.49 99.6701 1701.3 98.6981 1704.29 98.0039C1707.35 97.3096 1710.64 96.9624 1714.18 96.9624C1720.02 96.9624 1725.19 97.9691 1729.7 99.9826C1734.21 101.996 1738 104.808 1741.05 108.418C1744.18 112.028 1746.5 116.333 1748.03 121.332C1749.63 126.331 1750.43 131.816 1750.43 137.786V206H1721.79V137.786C1721.79 131.816 1720.4 127.199 1717.62 123.935C1714.84 120.603 1710.75 118.937 1705.33 118.937C1701.3 118.937 1697.52 119.804 1693.98 121.54C1690.44 123.276 1687.07 125.706 1683.88 128.83V206H1655.13V98.6287H1672.84C1676.45 98.6287 1678.84 100.295 1680.02 103.628L1681.8 111.126ZM657.497 430.589V456H567.83V304.889H599.073V430.589H657.497ZM702.27 348.629V456H673.527V348.629H702.27ZM705.707 318.115C705.707 320.545 705.221 322.801 704.249 324.884C703.277 326.967 701.958 328.807 700.291 330.404C698.694 332.001 696.785 333.25 694.563 334.153C692.411 335.055 690.085 335.507 687.586 335.507C685.225 335.507 682.969 335.055 680.817 334.153C678.734 333.25 676.894 332.001 675.297 330.404C673.7 328.807 672.416 326.967 671.444 324.884C670.541 322.801 670.09 320.545 670.09 318.115C670.09 315.685 670.541 313.428 671.444 311.346C672.416 309.193 673.7 307.319 675.297 305.722C676.894 304.125 678.734 302.875 680.817 301.973C682.969 301.07 685.225 300.619 687.586 300.619C690.085 300.619 692.411 301.07 694.563 301.973C696.785 302.875 698.694 304.125 700.291 305.722C701.958 307.319 703.277 309.193 704.249 311.346C705.221 313.428 705.707 315.685 705.707 318.115ZM755.542 427.673C758.25 430.797 761.166 432.984 764.29 434.234C767.484 435.484 770.782 436.109 774.184 436.109C777.725 436.109 780.918 435.484 783.765 434.234C786.681 432.915 789.18 430.867 791.263 428.09C793.346 425.243 794.943 421.563 796.054 417.051C797.165 412.538 797.72 407.088 797.72 400.7C797.72 395.007 797.269 390.182 796.366 386.224C795.464 382.197 794.11 378.9 792.305 376.331C790.569 373.762 788.417 371.887 785.848 370.707C783.279 369.527 780.294 368.937 776.892 368.937C772.379 368.937 768.456 369.943 765.123 371.957C761.86 373.901 758.667 376.782 755.542 380.601V427.673ZM755.542 361.022C759.777 356.787 764.464 353.385 769.602 350.816C774.739 348.247 780.502 346.962 786.889 346.962C793.068 346.962 798.623 348.212 803.552 350.712C808.551 353.142 812.786 356.648 816.258 361.23C819.798 365.812 822.506 371.367 824.381 377.893C826.325 384.35 827.297 391.605 827.297 399.659C827.297 408.337 826.186 416.252 823.964 423.403C821.812 430.485 818.722 436.56 814.695 441.628C810.669 446.697 805.843 450.619 800.22 453.396C794.665 456.174 788.451 457.562 781.578 457.562C778.245 457.562 775.26 457.215 772.622 456.521C769.983 455.896 767.553 454.993 765.332 453.813C763.11 452.633 761.062 451.244 759.187 449.647C757.313 447.981 755.542 446.141 753.876 444.128L752.73 450.585C752.244 452.598 751.446 454.021 750.335 454.854C749.224 455.618 747.732 456 745.857 456H726.799V300.723H755.542V361.022ZM872.763 366.333C876.165 360.223 880.088 355.398 884.531 351.857C888.975 348.316 894.182 346.546 900.153 346.546C905.013 346.546 908.97 347.691 912.025 349.983L910.151 371.228C909.803 372.616 909.248 373.588 908.484 374.144C907.79 374.63 906.818 374.873 905.568 374.873C904.457 374.873 902.861 374.734 900.778 374.456C898.695 374.109 896.751 373.935 894.946 373.935C892.307 373.935 889.947 374.317 887.864 375.081C885.851 375.845 884.045 376.921 882.449 378.309C880.852 379.698 879.394 381.399 878.075 383.412C876.825 385.426 875.645 387.717 874.534 390.286V456H845.79V348.629H862.766C865.682 348.629 867.695 349.149 868.806 350.191C869.917 351.232 870.715 353.037 871.201 355.606L872.763 366.333ZM979.217 411.114C972.204 411.462 966.372 412.086 961.721 412.989C957.069 413.822 953.355 414.933 950.577 416.322C947.87 417.71 945.926 419.307 944.745 421.112C943.635 422.848 943.079 424.757 943.079 426.84C943.079 431.006 944.225 433.956 946.516 435.692C948.876 437.428 952.14 438.296 956.305 438.296C961.096 438.296 965.227 437.463 968.698 435.796C972.239 434.061 975.745 431.388 979.217 427.777V411.114ZM920.688 363.521C927.006 357.828 933.984 353.593 941.621 350.816C949.258 347.969 957.52 346.546 966.407 346.546C972.795 346.546 978.488 347.587 983.487 349.67C988.555 351.753 992.825 354.669 996.296 358.418C999.837 362.098 1002.54 366.507 1004.42 371.644C1006.29 376.782 1007.23 382.406 1007.23 388.515V456H994.109C991.401 456 989.319 455.618 987.861 454.854C986.472 454.091 985.326 452.494 984.424 450.064L982.133 443.19C979.425 445.551 976.787 447.634 974.218 449.439C971.718 451.244 969.115 452.772 966.407 454.021C963.699 455.202 960.783 456.104 957.659 456.729C954.604 457.354 951.168 457.666 947.349 457.666C942.628 457.666 938.323 457.041 934.435 455.792C930.547 454.542 927.18 452.702 924.333 450.272C921.556 447.773 919.404 444.683 917.877 441.003C916.349 437.324 915.585 433.089 915.585 428.298C915.585 424.341 916.592 420.383 918.606 416.426C920.619 412.468 924.056 408.893 928.916 405.699C933.845 402.436 940.371 399.763 948.495 397.68C956.687 395.528 966.928 394.313 979.217 394.035V388.515C979.217 381.781 977.793 376.851 974.947 373.727C972.1 370.533 968.004 368.937 962.658 368.937C958.701 368.937 955.403 369.423 952.764 370.395C950.126 371.297 947.8 372.304 945.787 373.415C943.843 374.456 942.003 375.463 940.267 376.435C938.532 377.337 936.518 377.789 934.227 377.789C932.214 377.789 930.513 377.303 929.124 376.331C927.805 375.289 926.694 374.074 925.791 372.686L920.688 363.521ZM1056.64 366.333C1060.04 360.223 1063.97 355.398 1068.41 351.857C1072.85 348.316 1078.06 346.546 1084.03 346.546C1088.89 346.546 1092.85 347.691 1095.9 349.983L1094.03 371.228C1093.68 372.616 1093.13 373.588 1092.36 374.144C1091.67 374.63 1090.7 374.873 1089.45 374.873C1088.33 374.873 1086.74 374.734 1084.65 374.456C1082.57 374.109 1080.63 373.935 1078.82 373.935C1076.18 373.935 1073.82 374.317 1071.74 375.081C1069.73 375.845 1067.92 376.921 1066.33 378.309C1064.73 379.698 1063.27 381.399 1061.95 383.412C1060.7 385.426 1059.52 387.717 1058.41 390.286V456H1029.67V348.629H1046.64C1049.56 348.629 1051.57 349.149 1052.68 350.191C1053.79 351.232 1054.59 353.037 1055.08 355.606L1056.64 366.333ZM1207.74 348.629L1149.84 484.848C1148.94 486.792 1147.83 488.25 1146.51 489.222C1145.26 490.194 1143.24 490.68 1140.47 490.68H1119.12L1139.42 447.356L1096.31 348.629H1121.51C1123.8 348.629 1125.57 349.149 1126.82 350.191C1128.07 351.232 1128.98 352.447 1129.53 353.836L1149.94 405.178C1150.71 407.192 1151.37 409.24 1151.92 411.323C1152.55 413.336 1153.14 415.35 1153.69 417.363C1154.94 413.267 1156.36 409.17 1157.96 405.074L1176.92 353.836C1177.47 352.308 1178.48 351.059 1179.94 350.087C1181.39 349.115 1182.99 348.629 1184.73 348.629H1207.74Z" fill="black"/>
<defs>
<linearGradient id="paint0_linear_2_9" x1="250" y1="7" x2="250" y2="507" gradientUnits="userSpaceOnUse">
<stop stop-color="#00BAF4"/>
<stop offset="1" stop-color="#0085FF"/>
</linearGradient>
<linearGradient id="paint1_linear_2_9" x1="249.5" y1="59" x2="249.5" y2="454" gradientUnits="userSpaceOnUse">
<stop stop-color="#0085FF"/>
<stop offset="1" stop-color="#00BAF4"/>
</linearGradient>
</defs>
</svg>
